:SAMPLES-PER-SECOND 30
:FULLY-SPECIFIED
:DEGREES
322
root  50.4728 38.8863 -1.94763 168.08 -77.0705 -176.189
RightUpLeg  13.2794 -15.681 -8.24677
RightLeg  18.2793 -9.01923 0.136463
RightFoot  -18.3958 0.122889 4.01564
RightToes  2.32829e-010 0 -3.6325e-017
Spine  10.4555 -2.1323 8.88625
Spine1  8.41615 -1.104 -0.299163
HEad  -17.7075 14.5239 -10.2089
LeftShoulder1  9.46435 -13.7355 -47.9233
LeftArm  -13.3628 19.6988 -26.6118
LeftForeArm  16.5517 -15.7226 -4.05237
LeftHand  -0.244104 0.0205437 5.32207
RightShoulder  5.33844 9.27069 35.8133
RightArm  -11.7201 -20.6539 28.4817
RightForeArm  -15.5342 7.45791 7.25853
RightHand  -1.58072 3.12129 -21.5698
LeftUpLeg  -9.76733 11.1722 10.6988
LeftLeg  0.0405012 24.0185 -5.52122
LeftFoot  15.3127 -0.588351 2.08864
LeftToes  1.42787e-010 7.94111e-011 2.6399e-011
323
root  50.2586 38.9047 -1.80865 169.841 -77.3704 -177.478
RightUpLeg  13.4196 -15.2384 -8.83078
RightLeg  17.5545 -9.40952 0.510316
RightFoot  -18.2893 0.15945 4.66573
RightToes  2.32829e-010 0 -3.6325e-017
Spine  11.2424 -2.03689 8.32818
Spine1  7.75808 -1.00241 -0.295458
HEad  -17.6604 14.5684 -10.3717
LeftShoulder1  9.50242 -13.7683 -48.0261
LeftArm  -13.2697 19.3706 -26.17
LeftForeArm  16.8961 -18.179 -3.87772
LeftHand  -0.244104 0.0205437 5.32207
RightShoulder  5.44688 9.37108 36.3175
RightArm  -12.0085 -18.7771 30.137
RightForeArm  -15.7351 8.53499 7.42643
RightHand  -1.65441 3.4484 -21.7413
LeftUpLeg  -11.8232 15.1401 9.19332
LeftLeg  4.30595 21.3287 -3.60393
LeftFoot  10.9303 -0.482043 2.11906
LeftToes  1.42787e-010 7.94111e-011 2.6399e-011
324
root  49.9803 38.8768 -1.65771 171.157 -77.8135 -178.238
RightUpLeg  13.4237 -15.0046 -9.32562
RightLeg  17.2563 -9.96322 0.696465
RightFoot  -18.3614 0.183254 5.01564
RightToes  2.32829e-010 0 -3.6325e-017
Spine  11.9675 -1.90162 7.91099
Spine1  6.94776 -0.883412 -0.212926
HEad  -17.6509 14.3576 -10.3057
LeftShoulder1  9.51193 -13.8033 -47.9765
LeftArm  -13.5815 19.0665 -25.708
LeftForeArm  17.6066 -21.1319 -3.83938
LeftHand  -0.244104 0.0205437 5.32207
RightShoulder  5.55814 9.44448 36.9195
RightArm  -11.0844 -16.5596 31.7214
RightForeArm  -14.8927 9.89164 7.66978
RightHand  -1.62324 3.39831 -21.4599
LeftUpLeg  -14.665 22.1906 6.44973
LeftLeg  9.05609 16.0975 -0.642296
LeftFoot  6.90665 -0.405038 2.24974
LeftToes  1.42787e-010 7.94111e-011 2.6399e-011
325
root  49.6197 38.804 -1.48896 171.477 -78.3343 -178.036
RightUpLeg  13.5657 -14.9851 -9.76999
RightLeg  17.1825 -10.4234 0.832057
RightFoot  -18.6376 0.214822 5.34515
RightToes  2.32829e-010 0 -3.6325e-017
Spine  12.4315 -1.72472 7.77256
Spine1  6.48584 -0.698143 -0.178215
HEad  -17.7216 13.8251 -10.031
LeftShoulder1  9.50589 -13.8781 -47.7365
LeftArm  -14.4011 18.4822 -25.3524
LeftForeArm  18.5411 -23.8669 -4.11854
LeftHand  -0.244104 0.0205437 5.32207
RightShoulder  5.67674 9.5738 37.387
RightArm  -8.66656 -14.1831 33.2702
RightForeArm  -13.7757 11.705 7.85294
RightHand  -1.56874 3.33658 -20.9049
LeftUpLeg  -17.5504 28.3933 3.55085
LeftLeg  13.0074 10.574 2.04774
LeftFoot  5.00306 -0.282438 1.75986
LeftToes  1.42787e-010 7.94111e-011 2.6399e-011
326
root  49.1677 38.7014 -1.2952 171.781 -78.8771 -177.888
RightUpLeg  13.9795 -15.289 -10.4814
RightLeg  17.0928 -10.1388 0.997871
RightFoot  -19.0393 0.304245 6.43252
RightToes  2.32829e-010 0 -3.6325e-017
Spine  12.6656 -1.50496 7.58794
Spine1  6.37391 -0.456606 -0.259832
HEad  -17.6455 13.1246 -9.56527
LeftShoulder1  9.49466 -13.9506 -47.478
LeftArm  -15.1294 17.5763 -25.013
LeftForeArm  19.3003 -25.9953 -4.54825
LeftHand  -0.244104 0.0205437 5.32207
RightShoulder  5.77779 9.75801 37.5407
RightArm  -4.45887 -11.9463 34.7496
RightForeArm  -13.1503 14.2476 7.70024
RightHand  -1.5221 3.3471 -20.2785
LeftUpLeg  -19.2196 29.5674 2.25333
LeftLeg  15.9524 8.22402 3.07933
LeftFoot  5.08975 -0.237029 1.42518
LeftToes  1.42787e-010 7.94111e-011 2.6399e-011
327
root  48.6441 38.6062 -1.07912 174.427 -79.4746 179.911
RightUpLeg  14.3483 -16.2379 -11.7556
RightLeg  17.2503 -9.14113 0.75134
RightFoot  -19.3458 0.415045 7.80182
RightToes  2.32829e-010 0 -3.6325e-017
Spine  12.9365 -1.22788 6.72152
Spine1  6.15583 -0.235643 -0.336026
HEad  -17.3707 12.4474 -8.92514
LeftShoulder1  9.47707 -13.9513 -47.3864
LeftArm  -15.2108 16.416 -24.5412
LeftForeArm  19.6991 -27.4134 -4.84233
LeftHand  -0.244104 0.0205437 5.32207
RightShoulder  5.85319 9.92462 37.5605
RightArm  1.02811 -10.028 35.9318
RightForeArm  -13.3657 17.4884 6.95376
RightHand  -1.44892 3.18479 -19.6831
LeftUpLeg  -19.8891 28.2716 1.40365
LeftLeg  17.8928 7.62928 3.06739
LeftFoot  5.59773 -0.389958 2.39024
LeftToes  1.42787e-010 7.94111e-011 2.6399e-011
328
root  48.0933 38.5405 -0.851835 -179.372 -80.1651 174.159
RightUpLeg  14.2344 -18.1148 -13.5396
RightLeg  18.3217 -7.81517 -0.427631
RightFoot  -19.4335 0.47815 8.60286
RightToes  2.32829e-010 0 -3.6325e-017
Spine  13.5398 -0.888102 4.99347
Spine1  5.53411 -0.0800596 -0.255044
HEad  -17.1057 11.7401 -8.23847
LeftShoulder1  9.47111 -13.9168 -47.4516
LeftArm  -14.5996 14.8421 -23.9898
LeftForeArm  19.7287 -27.8434 -4.93797
LeftHand  -0.244104 0.0205437 5.32207
RightShoulder  5.91208 10.0285 37.6577
RightArm  5.62227 -8.40866 36.7112
RightForeArm  -13.1282 20.9526 5.93766
RightHand  -1.35076 2.88154 -19.034
LeftUpLeg  -20.414 27.3269 -0.357357
LeftLeg  19.0572 7.36568 3.14482
LeftFoot  5.32956 -0.641568 4.16317
LeftToes  1.42787e-010 7.94111e-011 2.6399e-011
329
root  47.5737 38.4928 -0.618721 -170.841 -80.8757 166.067
RightUpLeg  13.2332 -19.7262 -15.1719
RightLeg  20.849 -6.68867 -2.31866
RightFoot  -19.1473 0.560958 10.0989
RightToes  2.32829e-010 0 -3.6325e-017
Spine  14.6339 -0.521056 2.94072
Spine1  4.5823 0.0351319 -0.11602
HEad  -16.9592 10.8239 -7.73935
LeftShoulder1  9.51324 -13.9619 -47.5412
LeftArm  -13.1875 12.5909 -23.5671
LeftForeArm  18.9109 -26.9305 -4.77655
LeftHand  -0.244104 0.0205437 5.32207
RightShoulder  5.94517 10.0911 37.6982
RightArm  7.08818 -6.93242 37.3221
RightForeArm  -10.7176 24.0459 5.61858
RightHand  -1.2572 2.65 -18.2421
LeftUpLeg  -20.8756 26.7997 -2.40189
LeftLeg  19.9325 7.40443 3.28985
LeftFoot  4.41558 -0.762591 5.30899
LeftToes  1.42787e-010 7.94111e-011 2.6399e-011
330
root  47.1319 38.4622 -0.370702 -162.174 -81.4603 157.907
RightUpLeg  10.6594 -18.2226 -15.7573
RightLeg  25.5239 -7.54979 -4.23047
RightFoot  -17.743 0.643601 13.7991
RightToes  2.32829e-010 0 -3.6325e-017
Spine  16.2045 -0.198305 1.2152
Spine1  3.47396 0.141449 -0.182052
HEad  -16.9637 9.74822 -7.5546
LeftShoulder1  9.61884 -14.1432 -47.5759
LeftArm  -11.0698 9.68546 -23.4063
LeftForeArm  17.0904 -24.7744 -4.40172
LeftHand  -0.244104 0.0205437 5.32207
RightShoulder  5.94669 10.1728 37.4569
RightArm  6.48682 -5.37005 38.0622
RightForeArm  -7.6081 26.5519 6.09526
RightHand  -1.18425 2.46198 -17.6083
LeftUpLeg  -21.2766 27.0027 -4.30526
LeftLeg  20.4515 6.67425 3.07317
LeftFoot  3.53152 -0.738684 5.48863
LeftToes  1.42787e-010 7.94111e-011 2.6399e-011
331
root  46.7703 38.4791 -0.100118 -154.843 -81.7818 151.207
RightUpLeg  6.13834 -15.6566 -15.9759
RightLeg  32.964 -9.00573 -6.50755
RightFoot  -13.8386 0.278119 16.9926
RightToes  2.32829e-010 0 -3.6325e-017
Spine  18.1148 0.0180867 0.0405771
Spine1  2.38435 0.235756 -0.508856
HEad  -17.4118 8.79389 -7.53675
LeftShoulder1  9.76907 -14.4484 -47.4965
LeftArm  -9.078 6.41949 -23.5344
LeftForeArm  15.306 -22.02 -4.09842
LeftHand  -0.244104 0.0205437 5.32207
RightShoulder  5.95458 10.3398 37.004
RightArm  6.24562 -3.46183 38.899
RightForeArm  -6.31058 28.6225 6.53064
RightHand  -1.15144 2.26536 -17.5545
LeftUpLeg  -21.5198 27.9156 -6.05279
LeftLeg  20.2442 5.22939 2.46416
LeftFoot  2.92602 -0.711427 5.53888
LeftToes  1.42787e-010 7.94111e-011 2.6399e-011
332
root  46.4693 38.5363 0.173095 -149.188 -81.8502 146.188
RightUpLeg  -0.064912 -14.259 -16.2846
RightLeg  42.3045 -9.75294 -9.67237
RightFoot  -6.94159 -0.596729 15.2365
RightToes  2.32829e-010 0 -3.6325e-017
Spine  20.2194 0.119596 -0.714552
Spine1  1.59406 0.294935 -0.941163
HEad  -18.6366 8.14161 -7.42855
LeftShoulder1  9.93149 -14.8712 -47.1694
LeftArm  -8.58184 2.96368 -23.9136
LeftForeArm  15.3257 -19.2896 -4.29769
LeftHand  -0.244104 0.0205437 5.32207
RightShoulder  6.01306 10.6204 36.5755
RightArm  6.10125 -1.03729 39.6102
RightForeArm  -5.77348 30.4348 6.95738
RightHand  -1.15985 2.17074 -17.891
LeftUpLeg  -21.6108 29.0436 -7.63941
LeftLeg  19.5738 3.95468 1.89064
LeftFoot  2.40441 -0.717264 5.82493
LeftToes  1.42787e-010 7.94111e-011 2.6399e-011
333
root  46.2387 38.5579 0.409611 -144.849 -81.913 142.34
RightUpLeg  -6.67005 -13.905 -16.4958
RightLeg  50.8669 -9.03542 -12.0008
RightFoot  0.23715 -0.973594 9.53327
RightToes  2.32829e-010 0 -3.6325e-017
Spine  22.4293 0.128068 -1.20133
Spine1  1.31505 0.284894 -1.38463
HEad  -20.4583 7.68073 -7.17335
LeftShoulder1  10.0772 -15.3821 -46.551
LeftArm  -9.07108 -0.780997 -24.4469
LeftForeArm  16.6866 -16.8703 -4.74726
LeftHand  -0.244104 0.0205437 5.32207
RightShoulder  6.1068 10.9496 36.2618
RightArm  5.624 1.88228 40.2147
RightForeArm  -4.7971 32.1135 7.34356
RightHand  -1.16615 2.15747 -18.0164
LeftUpLeg  -21.862 29.7915 -8.85593
LeftLeg  19.4121 3.17772 1.57543
LeftFoot  1.75624 -0.692696 5.93402
LeftToes  1.42787e-010 7.94111e-011 2.6399e-011
334
root  46.0798 38.5342 0.597261 -142.098 -82.3066 140.022
RightUpLeg  -12.4057 -14.3261 -16.2668
RightLeg  56.3649 -6.81441 -11.2815
RightFoot  3.55727 -0.784073 6.06814
RightToes  2.32829e-010 0 -3.6325e-017
Spine  24.6416 0.0213624 -1.27283
Spine1  1.3804 0.190658 -1.71909
HEad  -22.396 7.22042 -6.9266
LeftShoulder1  10.2187 -15.8869 -45.9558
LeftArm  -9.61355 -4.89628 -24.8288
LeftForeArm  18.2355 -14.7557 -5.26655
LeftHand  -0.244104 0.0205437 5.32207
RightShoulder  6.18482 11.2059 36.06
RightArm  4.9102 5.20163 40.7239
RightForeArm  -3.50384 33.5413 7.65946
RightHand  -1.15307 2.11778 -17.9102
LeftUpLeg  -22.4324 30.0125 -9.48219
LeftLeg  19.9398 2.56226 1.36462
LeftFoot  1.10793 -0.634845 5.75384
LeftToes  1.42787e-010 7.94111e-011 2.6399e-011
335
root  45.9664 38.5179 0.744143 -141.354 -83.0186 139.868
RightUpLeg  -17.2097 -15.0477 -15.3961
RightLeg  58.4525 -4.53735 -8.42834
RightFoot  2.66035 -0.85265 7.13622
RightToes  2.32829e-010 0 -3.6325e-017
Spine  26.7832 -0.152867 -0.941036
Spine1  1.43645 0.0641173 -1.78696
HEad  -24.2367 6.64828 -6.77244
LeftShoulder1  10.4118 -16.3131 -45.8102
LeftArm  -10.0363 -9.17073 -24.8242
LeftForeArm  19.5167 -13.0539 -5.75307
LeftHand  -0.244104 0.0205437 5.32207
RightShoulder  6.24606 11.359 36.0391
RightArm  4.36378 8.8225 40.9343
RightForeArm  -2.85083 34.5271 7.89793
RightHand  -1.1625 2.1316 -18.0203
LeftUpLeg  -23.2643 29.9127 -9.65298
LeftLeg  20.5359 2.04157 1.18178
LeftFoot  0.630107 -0.598899 5.67156
LeftToes  1.42787e-010 7.94111e-011 2.6399e-011
